<svg width="108" height="21" viewBox="0 0 108 21" fill="none" xmlns="http://www.w3.org/2000/svg">
<path d="M31.3885 3.076C31.2012 3.39519 30.7546 4.03357 30.4668 4.03357C30.1071 4.03357 29.6349 3.80557 29.2752 3.23559C28.9874 2.77961 28.1361 2.81761 27.7464 2.8936C27.2968 2.37682 26.2716 1.27942 25.768 1.02406C25.1385 0.704875 24.1043 0.0892947 22.9352 0.0664955C21.7662 0.0436962 21.384 0.317287 20.732 0.0664955C20.08 -0.184296 19.1807 0.340084 18.9334 0.522478C18.6861 0.704872 17.2247 1.16086 16.6627 1.20646C16.1006 1.25206 15.1339 2.09563 14.999 2.39202C14.8641 2.68841 14.392 3.50918 14.1672 3.69158C13.9423 3.87397 12.3686 6.1311 11.5143 6.1995C10.6599 6.2679 9.42341 6.70108 8.86136 6.1995C8.2993 5.69791 8.11944 5.49272 7.31008 5.62952C6.50072 5.76631 5.17427 4.64915 5.19675 3.69158C5.21924 2.73401 5.66888 1.98163 6.09604 1.79924C6.57566 1.95123 7.61135 2.14579 7.9171 1.70804C8.22286 1.2703 8.13443 0.644076 8.052 0.385684C7.96956 0.697274 7.71476 1.25206 7.35505 0.978465C6.9054 0.636476 6.14664 0.796071 5.8937 1.50285C5.61642 1.76884 5.03039 2.46042 4.90449 3.0988C4.74711 3.89677 4.94945 4.83154 5.6464 5.51552C6.34335 6.1995 7.75973 6.31349 7.78221 6.90627C7.80469 7.49906 7.73725 7.79545 7.35505 8.25143C6.97285 8.70742 6.45576 8.88981 6.52321 9.96138C6.57133 10.7259 6.74535 11.7807 6.82478 12.4465C6.57438 12.6897 6.01511 13.1852 5.78129 13.2217C5.48902 13.2673 4.90449 13.3129 4.70215 13.6321C4.49981 13.9512 4.27498 14.6808 3.84782 15.0456C3.42066 15.4104 2.04924 16.3224 1.73449 16.4136C1.41974 16.5048 1.14995 16.7784 1.08251 17.0519C1.01506 17.3255 0.61038 17.6447 0.475487 17.6903C0.340593 17.7359 0.0258427 18.6479 0.00336075 18.9443C-0.0191212 19.2407 0.0708065 19.6739 0.273148 19.6967C0.475487 19.7195 0.790237 19.6739 0.992579 19.5599C1.15445 19.4687 1.31049 19.3547 1.36827 19.3091C1.3531 19.5727 1.35966 20.4159 1.41974 20.5174C1.48719 20.6314 1.48719 20.7682 1.64456 20.677C1.80194 20.5858 1.8469 20.7682 1.8469 20.8366C1.8469 20.905 1.89187 20.9734 2.04924 20.905C2.20662 20.8366 2.88108 20.1754 2.97101 19.9931C3.06094 19.8107 3.01598 19.5371 3.03846 19.4459C3.06094 19.3547 3.28576 19.1039 3.35321 19.1039C3.42066 19.1039 3.623 19.0811 3.69044 18.8075C3.75789 18.5339 3.89279 18.0323 4.11761 17.7359C4.34243 17.4395 5.2642 16.5048 5.78129 16.4136C6.29838 16.3224 6.36583 16.2312 6.70306 15.8664C7.0403 15.5016 7.33257 15.4332 7.62484 15.4104C7.9171 15.3876 8.18689 15.4788 8.59157 15.3192C8.99625 15.1596 9.60327 15.2052 9.71568 15.2052C9.82809 15.2052 10.1653 15.342 10.4576 14.9772C10.7499 14.6124 11.3344 14.1792 11.4468 14.088C11.5592 13.9968 11.6716 13.8601 11.7616 13.4953C12.0164 13.5105 12.6384 13.4998 13.088 13.3357C13.6501 13.1305 14.5269 12.8113 15.2463 12.8797C15.9657 12.9481 17.1348 13.1761 17.4945 13.0621C17.7823 12.9709 18.2589 12.8417 18.4613 12.7885C18.4613 13.0089 18.5107 13.5272 18.7086 13.8373C18.9559 14.2248 19.1133 14.5896 19.0233 14.8632C18.9334 15.1368 18.6186 15.3192 18.5962 15.3876C18.5737 15.456 19.0908 15.4332 19.1133 15.4104C19.1357 15.3876 18.9559 15.6612 18.7086 15.7068C18.5107 15.7433 18.2814 15.722 18.1915 15.7068C18.0566 15.9576 17.7823 16.4865 17.7643 16.596C17.7463 16.7054 17.7568 17.2495 17.7643 17.5079H18.3039C18.5137 17.3255 18.9514 16.9425 19.0233 16.8696C19.1133 16.7784 20.2598 15.5472 20.2823 15.4104C20.3048 15.2736 20.3947 14.886 20.2374 14.7036C20.08 14.5212 19.8102 13.974 19.8102 13.4953V12.5377C19.8627 12.4541 19.9631 12.2595 19.9451 12.1501C20.11 11.9829 20.4487 11.6212 20.4847 11.5117C20.5206 11.4023 20.6196 11.1773 20.6645 11.0785C20.732 11.2229 20.8804 11.5026 20.9343 11.4661C21.0018 11.4205 21.4739 10.577 21.5863 10.3946C21.6987 10.2122 21.946 10.1438 22.1484 10.2806C22.3507 10.4174 22.9352 11.3065 23.0252 11.4661C23.0971 11.5938 23.1151 11.7473 23.1151 11.8081C23.1601 11.8993 22.8003 12.1501 22.8678 12.1957C22.9217 12.2322 23.0551 12.2413 23.1151 12.2413C23.1601 12.4693 22.9802 12.6061 22.8678 12.6973C22.7554 12.7885 22.4631 12.7429 22.2832 12.8569C22.1034 12.9709 21.946 13.4497 21.946 13.6549C21.946 13.8601 21.8561 14.8632 21.946 14.8632C22.0359 14.8632 22.3732 14.7036 22.598 14.544C22.7779 14.4164 22.9877 14.1108 23.0701 13.974C23.0701 14.0956 23.0881 14.3115 23.1601 14.202C23.25 14.0652 23.3624 13.8373 23.6322 13.7689C23.902 13.7005 24.2842 13.1989 24.3741 12.9481C24.464 12.6973 24.1493 12.0589 24.0144 11.8081C23.8795 11.5573 24.0593 10.7138 24.0144 10.4858C23.9694 10.2578 23.9469 9.73338 23.8345 9.1862C23.7221 8.63902 23.3624 8.88981 23.1601 8.79861C22.9982 8.72566 22.775 8.76822 22.6836 8.79861C22.9417 8.52952 23.1689 8.33847 23.25 8.09184C23.3399 7.81825 23.7221 7.20267 23.9469 7.02027C24.1268 6.87436 24.4715 6.74668 24.6214 6.70108C24.7713 6.80748 25.0755 7.05219 25.0935 7.17987C25.116 7.33946 25.7005 8.27423 25.6331 8.79861C25.5657 9.323 26.7797 9.91578 27.1394 9.55099C27.4991 9.1862 27.9038 9.43699 27.9488 8.54782C27.9937 7.65865 28.331 7.88664 28.4659 7.17987C28.4434 7.02787 28.4614 6.619 28.7132 6.1995C28.965 5.77999 28.863 5.35592 28.7806 5.19633C28.9155 5.33313 29.2572 5.58392 29.545 5.49272C29.9047 5.37872 30.197 5.19633 30.2644 4.94554C30.0921 4.98354 29.7069 5.03674 29.545 4.94554C29.3831 4.85434 29.1328 4.77074 29.0279 4.74034C28.9455 4.58835 28.7401 4.28436 28.5783 4.28436C28.5258 4.23876 28.4299 4.12476 28.4659 4.03357C28.5108 3.91957 28.8705 4.21596 29.5 4.39836C30.1295 4.58075 30.6691 4.53515 30.9839 4.21596C31.2986 3.89677 31.3885 3.34199 31.3885 3.076Z" fill="#1B837C"/>
<path d="M7.85803 15.4103L9.12808 11.77C9.16987 11.6502 9.32986 11.6323 9.39655 11.7399C9.46069 11.8434 9.6132 11.8317 9.6612 11.7196L10.635 9.44525C10.6839 9.33115 10.8391 9.31925 10.9044 9.42459C10.9712 9.53248 11.1311 9.51675 11.1762 9.39784L11.4664 8.63248C11.6351 8.18743 12.2393 8.14176 12.4715 8.55651L13.2501 9.94755C13.602 10.5762 14.5119 10.5282 14.7974 9.86603L15.2105 8.90777C15.283 8.73952 15.5061 8.70941 15.6197 8.85255C15.7348 8.9977 15.9616 8.9643 16.0312 8.79197L16.9011 6.63512C17.0852 6.17862 17.7214 6.17158 17.9153 6.6239C18.1051 7.06638 18.723 7.07217 18.9208 6.63333L19.4729 5.40832C19.5613 5.21211 19.8272 5.18793 19.9487 5.36504C20.0742 5.54783 20.3504 5.5149 20.4305 5.3076L21.5936 2.29703C21.8148 1.72434 22.5918 1.66381 22.897 2.19549L23.2297 2.77512C23.3642 3.00941 23.6992 3.00731 23.8309 2.77134C23.9566 2.54581 24.2723 2.53142 24.4176 2.74458L24.4389 2.7758C24.5998 3.01185 24.9524 2.98458 25.076 2.72653L25.8648 1.08002C26.3935 1.4107 27.324 2.40878 27.7465 2.89433C28.1362 2.81833 28.9875 2.78033 29.2753 3.23631C29.635 3.8063 30.1071 4.03429 30.4668 4.03429C30.7546 4.03429 31.2012 3.39591 31.3886 3.07672C31.3886 3.34271 31.2987 3.89749 30.9839 4.21668C30.6692 4.53587 30.1296 4.58147 29.5001 4.39908C29.1971 4.31129 28.9566 4.1971 28.7837 4.11497C28.5972 4.02645 28.4892 3.97516 28.4659 4.03429C28.4299 4.12549 28.5259 4.23948 28.5783 4.28508C28.7402 4.28508 28.9455 4.58907 29.028 4.74107C29.1329 4.77147 29.3832 4.85506 29.545 4.94626C29.7069 5.03746 30.0921 4.98426 30.2645 4.94626C30.197 5.19705 29.9048 5.37945 29.545 5.49344C29.2573 5.58464 28.9155 5.33385 28.7807 5.19705C28.8631 5.35665 28.965 5.78071 28.7132 6.20022C28.4614 6.61973 28.4434 7.02859 28.4659 7.18059C28.4059 7.49475 28.306 7.62422 28.2095 7.74921C28.089 7.90541 27.9738 8.05461 27.9488 8.54854C27.9186 9.14528 27.7264 9.22858 27.4946 9.32909C27.3809 9.37835 27.2578 9.43174 27.1395 9.55171C26.7797 9.9165 25.5657 9.32372 25.6331 8.79934C25.6809 8.42816 25.402 7.85137 25.2269 7.48942C25.1547 7.34001 25.1001 7.22722 25.0936 7.18059C25.0756 7.05291 24.7713 6.8082 24.6214 6.7018C24.4716 6.7474 24.1268 6.87508 23.947 7.02099C23.7222 7.20339 23.34 7.81897 23.25 8.09256C23.1842 8.2929 23.0219 8.45657 22.8249 8.65517C22.7794 8.70107 22.7321 8.74883 22.6836 8.79934C22.775 8.76894 22.9982 8.72638 23.1601 8.79934C23.2205 8.82657 23.295 8.82331 23.3727 8.8199C23.5552 8.81191 23.7557 8.80313 23.8346 9.18692C23.904 9.52509 23.9392 9.85454 23.9665 10.1107C23.9833 10.2691 23.9972 10.3994 24.0144 10.4865C24.0321 10.576 24.0151 10.7603 23.9961 10.9664C23.9667 11.2854 23.9325 11.6565 24.0144 11.8088C24.1493 12.0596 24.4641 12.698 24.3741 12.9488C24.2842 13.1996 23.902 13.7012 23.6322 13.7696C23.3945 13.8298 23.279 14.014 23.1933 14.1506C23.1818 14.169 23.1708 14.1865 23.1601 14.2028C23.0882 14.3122 23.0702 14.0964 23.0702 13.9748C22.9877 14.1116 22.7779 14.4171 22.598 14.5448C22.3732 14.7043 22.036 14.8639 21.9461 14.8639C21.88 14.8639 21.911 14.3227 21.9321 13.954C21.9397 13.8208 21.9461 13.7101 21.9461 13.6556C21.9461 13.4504 22.1034 12.9716 22.2833 12.8576C22.377 12.7982 22.5012 12.7821 22.6147 12.7675C22.7189 12.754 22.814 12.7417 22.8678 12.698C22.8714 12.6951 22.875 12.6922 22.8787 12.6892C22.9914 12.598 23.1587 12.4628 23.1151 12.242C23.0552 12.242 22.9218 12.2329 22.8678 12.1964C22.8356 12.1746 22.9011 12.1058 22.9732 12.03C23.0519 11.9474 23.1386 11.8564 23.1151 11.8088C23.1151 11.748 23.0971 11.5945 23.0252 11.4669C22.9353 11.3073 22.3507 10.4181 22.1484 10.2813C21.9461 10.1445 21.6987 10.2129 21.5863 10.3953C21.5539 10.4479 21.4916 10.5554 21.4177 10.683C21.2353 10.9978 20.9824 11.4344 20.9344 11.4669C20.8804 11.5033 20.732 11.2237 20.6646 11.0793C20.6196 11.1781 20.5207 11.403 20.4847 11.5124C20.4487 11.6219 20.11 11.9836 19.9451 12.1508C19.9631 12.2603 19.8627 12.4548 19.8102 12.5384V13.496C19.8102 13.9748 20.08 14.522 20.2374 14.7043C20.3797 14.8693 20.3198 15.2019 20.2904 15.3653C20.2873 15.3826 20.2845 15.398 20.2824 15.4111C20.2599 15.5479 19.1133 16.7791 19.0234 16.8703C18.9514 16.9432 18.5138 17.3263 18.3039 17.5087H17.7644C17.7569 17.2503 17.7464 16.7061 17.7644 16.5967C17.7823 16.4872 18.0566 15.9583 18.1915 15.7075C18.2815 15.7227 18.5108 15.744 18.7086 15.7075C18.9559 15.6619 19.1358 15.3883 19.1133 15.4111C19.0908 15.4339 18.5737 15.4567 18.5962 15.3883C18.6037 15.3655 18.6437 15.3301 18.697 15.2828C18.8035 15.1882 18.9634 15.0463 19.0234 14.8639C19.1133 14.5904 18.9559 14.2256 18.7086 13.838C18.5108 13.5279 18.4613 13.0096 18.4613 12.7892C18.259 12.8424 17.7823 12.9716 17.4946 13.0628C17.2421 13.1428 16.5907 13.0543 15.976 12.9708C15.7151 12.9353 15.4608 12.9008 15.2464 12.8804C14.5269 12.812 13.6501 13.1312 13.0881 13.3364C12.6384 13.5005 12.0164 13.5112 11.7616 13.496C11.6717 13.8608 11.5593 13.9976 11.4469 14.0888C11.4312 14.1015 11.4062 14.1209 11.3742 14.1459C11.1769 14.2996 10.7091 14.6641 10.4576 14.9779C10.2153 15.2804 9.94209 15.238 9.79171 15.2147C9.76071 15.2099 9.73493 15.2059 9.71572 15.2059C9.70132 15.2059 9.6788 15.2052 9.64963 15.2042C9.4511 15.1976 8.94445 15.1808 8.59161 15.3199C8.31212 15.4301 8.09698 15.4207 7.89433 15.4119C7.88219 15.4114 7.87009 15.4108 7.85803 15.4103Z" fill="url(#paint0_linear)" fill-opacity="0.62"/>
<path d="M26.0746 1.22745L25.3038 2.83657C25.0959 3.27045 24.5009 3.31621 24.2302 2.91913L24.209 2.88803C24.1701 2.83086 24.0851 2.83471 24.0514 2.89518C23.824 3.30299 23.243 3.30663 23.0106 2.9017L22.6778 2.32206C22.4796 1.9767 21.9732 2.01592 21.8296 2.38774L20.6662 5.39932C20.5126 5.79668 19.9812 5.85968 19.7405 5.50905C19.737 5.5039 19.7342 5.50229 19.7323 5.50144C19.7297 5.50027 19.7258 5.49938 19.721 5.49981C19.7162 5.50025 19.7125 5.50183 19.7101 5.50345C19.7084 5.50462 19.7059 5.50672 19.7034 5.51241L19.1512 6.73759C18.8629 7.37707 17.9594 7.36865 17.6829 6.72391C17.5785 6.48033 17.2347 6.48411 17.1355 6.72993L16.2654 8.8872C16.1258 9.23338 15.6741 9.30532 15.4348 9.02626L15.0295 9.96643C14.6612 10.8206 13.4833 10.8823 13.0293 10.0712L12.2512 8.68115C12.1248 8.45524 11.7946 8.48005 11.7027 8.72236L11.4125 9.48787C11.3147 9.74575 11.0124 9.82066 10.8083 9.68298L9.89348 11.8196C9.79112 12.0586 9.51072 12.1275 9.31349 12.0062L8.12435 15.4146C8.0443 15.4171 7.96846 15.4138 7.8943 15.4106C7.80352 15.4066 7.71526 15.4028 7.62484 15.4098C7.61265 15.4108 7.60045 15.4118 7.58826 15.4129L8.8893 11.6838C8.98055 11.4222 9.28298 11.3417 9.48885 11.4767L10.4026 9.34262C10.5071 9.09859 10.7959 9.03076 10.9948 9.16003L11.2298 8.54001C11.4747 7.89405 12.355 7.82791 12.6921 8.43015L13.4702 9.82021C13.7187 10.2642 14.3636 10.2305 14.5652 9.76285L14.9784 8.80436C15.124 8.4666 15.568 8.40111 15.8041 8.67583L16.6666 6.53755C16.9349 5.87245 17.865 5.86222 18.1476 6.52126C18.2498 6.75956 18.5838 6.76267 18.6903 6.52632L19.2425 5.30114C19.412 4.92492 19.9235 4.87865 20.1568 5.21843C20.1606 5.22392 20.1635 5.22545 20.1652 5.22621C20.1678 5.22733 20.1719 5.2282 20.1769 5.2276C20.182 5.227 20.1857 5.22521 20.188 5.22351C20.1896 5.22236 20.192 5.22019 20.1944 5.21396L21.3579 2.20239C21.6556 1.4317 22.705 1.35044 23.116 2.06624L23.4487 2.64588C23.4848 2.70869 23.5749 2.70813 23.6102 2.64487C23.8276 2.25505 24.375 2.23022 24.6262 2.59878L24.6474 2.62987C24.698 2.70403 24.8091 2.69549 24.8479 2.61445L25.6413 0.958313C25.6852 0.981107 25.7274 1.00291 25.768 1.02348C25.8562 1.06819 25.9604 1.13873 26.0746 1.22745Z" fill="#4EFFD4"/>
<path d="M67.2681 15.3381C66.4878 15.3381 65.7694 15.2334 65.1129 15.0241C64.4658 14.8148 63.9092 14.5055 63.4429 14.0964L63.971 13.0116C64.4658 13.4113 64.9749 13.7015 65.4982 13.8823C66.0311 14.0535 66.6258 14.1392 67.2823 14.1392C68.034 14.1392 68.6145 14.0012 69.0236 13.7253C69.4328 13.4398 69.6374 13.0402 69.6374 12.5263C69.6374 12.0886 69.4471 11.7651 69.0664 11.5558C68.6858 11.3369 68.0769 11.1324 67.2395 10.9421C66.4402 10.7708 65.7837 10.5757 65.2699 10.3569C64.756 10.138 64.3516 9.84305 64.0567 9.47195C63.7712 9.09134 63.6285 8.61082 63.6285 8.03039C63.6285 7.44045 63.7807 6.92187 64.0852 6.47465C64.3992 6.02743 64.8417 5.68013 65.4126 5.43273C65.9835 5.17582 66.6448 5.04736 67.3965 5.04736C68.1006 5.04736 68.762 5.15679 69.3804 5.37564C70.0085 5.58497 70.5223 5.88946 70.9219 6.2891L70.4081 7.37384C69.9418 6.99323 69.4613 6.71253 68.9665 6.53174C68.4813 6.34144 67.9627 6.24628 67.4108 6.24628C66.6876 6.24628 66.1167 6.39853 65.698 6.70302C65.2889 6.99799 65.0843 7.4119 65.0843 7.94476C65.0843 8.40149 65.2651 8.74879 65.6267 8.98668C65.9883 9.21504 66.5687 9.42438 67.368 9.61468C68.2053 9.80499 68.8809 10.0048 69.3947 10.2141C69.9181 10.414 70.332 10.6947 70.6365 11.0562C70.9505 11.4083 71.1075 11.8698 71.1075 12.4407C71.1075 13.0211 70.9505 13.5302 70.6365 13.9679C70.332 14.4056 69.8895 14.7434 69.3091 14.9813C68.7382 15.2192 68.0578 15.3381 67.2681 15.3381Z" fill="#4EFFD4"/>
<path d="M75.9755 14.2105C76.1944 14.2105 76.4085 14.1963 76.6178 14.1677L76.5464 15.2667C76.3085 15.3048 76.0612 15.3238 75.8042 15.3238C74.9003 15.3238 74.2247 15.105 73.7775 14.6673C73.3398 14.2201 73.1209 13.5778 73.1209 12.7404V9.37204H71.765V8.25876H73.1209V6.16065H74.5625V8.25876H76.4751V9.37204H74.5625V12.6833C74.5625 13.7015 75.0335 14.2105 75.9755 14.2105Z" fill="#4EFFD4"/>
<path d="M80.6219 8.08748C81.5544 8.08748 82.2442 8.32061 82.6915 8.78685C83.1482 9.2531 83.3766 9.96199 83.3766 10.9135V15.2239H81.9921V14.0678C81.8113 14.477 81.5401 14.791 81.1785 15.0098C80.8265 15.2192 80.4126 15.3238 79.9368 15.3238C79.4801 15.3238 79.0614 15.2334 78.6808 15.0526C78.3002 14.8623 78.0004 14.6007 77.7816 14.2676C77.5723 13.9346 77.4676 13.5635 77.4676 13.1544C77.4676 12.65 77.596 12.2552 77.853 11.9697C78.1194 11.6747 78.5523 11.4654 79.1518 11.3417C79.7608 11.218 80.5933 11.1562 81.6495 11.1562H81.9778V10.7422C81.9778 10.2094 81.8636 9.82402 81.6353 9.58614C81.4164 9.34825 81.0548 9.22931 80.5505 9.22931C79.7608 9.22931 78.971 9.47195 78.1812 9.95723L77.753 8.94386C78.1241 8.68694 78.5714 8.48237 79.0947 8.33012C79.6275 8.16836 80.1366 8.08748 80.6219 8.08748ZM80.1937 14.2534C80.717 14.2534 81.1452 14.0773 81.4783 13.7253C81.8113 13.3637 81.9778 12.9022 81.9778 12.3408V11.9697H81.7209C80.9787 11.9697 80.4078 12.003 80.0082 12.0696C79.6085 12.1362 79.3231 12.2504 79.1518 12.4122C78.9805 12.5644 78.8949 12.788 78.8949 13.083C78.8949 13.416 79.0138 13.6967 79.2517 13.9251C79.4991 14.1439 79.8131 14.2534 80.1937 14.2534Z" fill="#4EFFD4"/>
<path d="M89.5875 9.30068L88.7168 9.38632C88.0317 9.45292 87.5369 9.66226 87.2325 10.0143C86.9375 10.3664 86.79 10.8136 86.79 11.356V15.2239H85.3484V8.25876H86.7472V9.47195C87.1183 8.65364 87.8747 8.20167 89.0166 8.11603L89.4876 8.08748L89.5875 9.30068Z" fill="#4EFFD4"/>
<path d="M94.4717 14.2105C94.6905 14.2105 94.9046 14.1963 95.114 14.1677L95.0426 15.2667C94.8047 15.3048 94.5573 15.3238 94.3004 15.3238C93.3965 15.3238 92.7209 15.105 92.2737 14.6673C91.836 14.2201 91.6171 13.5778 91.6171 12.7404V9.37204H90.2612V8.25876H91.6171V6.16065H93.0587V8.25876H94.9713V9.37204H93.0587V12.6833C93.0587 13.7015 93.5297 14.2105 94.4717 14.2105Z" fill="#4EFFD4"/>
<path d="M102.172 11.984H97.2483C97.353 13.4588 98.0857 14.1963 99.4464 14.1963C100.246 14.1963 100.969 13.9346 101.616 13.4113L102.058 14.4246C101.735 14.7006 101.335 14.9194 100.859 15.0812C100.384 15.2429 99.8983 15.3238 99.4035 15.3238C98.2902 15.3238 97.4101 15.0051 96.7631 14.3675C96.1255 13.73 95.8068 12.8499 95.8068 11.7271C95.8068 11.0134 95.9447 10.3807 96.2207 9.82877C96.5061 9.27689 96.901 8.8487 97.4053 8.54422C97.9192 8.23973 98.4996 8.08748 99.1466 8.08748C100.089 8.08748 100.826 8.39197 101.359 9.00095C101.901 9.60992 102.172 10.452 102.172 11.5272V11.984ZM99.1752 9.14368C98.6233 9.14368 98.1808 9.31971 97.8478 9.67177C97.5243 10.0143 97.3292 10.5091 97.2626 11.1562H100.931C100.902 10.5091 100.736 10.0143 100.431 9.67177C100.136 9.31971 99.7175 9.14368 99.1752 9.14368Z" fill="#4EFFD4"/>
<path d="M108 9.30068L107.129 9.38632C106.444 9.45292 105.95 9.66226 105.645 10.0143C105.35 10.3664 105.203 10.8136 105.203 11.356V15.2239H103.761V8.25876H105.16V9.47195C105.531 8.65364 106.287 8.20167 107.429 8.11603L107.9 8.08748L108 9.30068Z" fill="#4EFFD4"/>
<path d="M36.3447 15.1907V5.2085H40.2705C41.2822 5.2085 42.0618 5.43976 42.6093 5.9023C43.1662 6.35539 43.4446 6.99255 43.4446 7.81378C43.4446 8.36127 43.3054 8.82852 43.027 9.21554C42.7485 9.60256 42.3634 9.88574 41.8715 10.0651C42.4376 10.2161 42.8785 10.4946 43.194 10.9005C43.5189 11.3064 43.6813 11.8208 43.6813 12.4438C43.6813 13.3311 43.3982 14.0108 42.8321 14.4827C42.2659 14.9547 41.4678 15.1907 40.4376 15.1907H36.3447ZM37.4584 9.66863H40.1035C41.5792 9.66863 42.317 9.08339 42.317 7.9129C42.317 6.73297 41.5792 6.143 40.1035 6.143H37.4584V9.66863ZM37.4584 14.2562H40.3262C41.8112 14.2562 42.5536 13.6474 42.5536 12.4297C42.5536 11.212 41.8112 10.6031 40.3262 10.6031H37.4584V14.2562Z" fill="white"/>
<path d="M47.7154 15.3181C46.0913 15.3181 45.2792 14.4072 45.2792 12.5854V8.30935H46.4068V12.5713C46.4068 13.1848 46.5275 13.6379 46.7688 13.9305C47.0194 14.2232 47.4092 14.3695 47.9382 14.3695C48.5136 14.3695 48.9823 14.176 49.3442 13.7889C49.7062 13.3925 49.8872 12.8686 49.8872 12.2173V8.30935H51.0148V15.1907H49.915V14.0297C49.7015 14.445 49.3999 14.7659 49.0101 14.9925C48.6296 15.2096 48.198 15.3181 47.7154 15.3181Z" fill="white"/>
<path d="M54.9204 15.3181C54.2336 15.3181 53.7139 15.1152 53.3612 14.7093C53.0178 14.294 52.8461 13.6946 52.8461 12.9111V5.2085H53.9737V12.8261C53.9737 13.8361 54.3682 14.3412 55.157 14.3412C55.3891 14.3412 55.5979 14.3128 55.7835 14.2562L55.7557 15.219C55.4679 15.2851 55.1895 15.3181 54.9204 15.3181Z" fill="white"/>
<path d="M58.7613 15.3181C58.0745 15.3181 57.5547 15.1152 57.2021 14.7093C56.8587 14.294 56.687 13.6946 56.687 12.9111V5.2085H57.8146V12.8261C57.8146 13.8361 58.209 14.3412 58.9979 14.3412C59.2299 14.3412 59.4388 14.3128 59.6244 14.2562L59.5965 15.219C59.3088 15.2851 59.0304 15.3181 58.7613 15.3181Z" fill="white"/>
<defs>
<linearGradient id="paint0_linear" x1="21.635" y1="-2.37581" x2="21.635" y2="19.579" gradientUnits="userSpaceOnUse">
<stop stop-color="#4EFFEA"/>
<stop offset="1" stop-color="#4EFFF4" stop-opacity="0"/>
</linearGradient>
</defs>
</svg>
